<?xml version="1.0" standalone="no"?>
<!DOCTYPE svg PUBLIC "-//W3C//DTD SVG 20010904//EN"
 "http://www.w3.org/TR/2001/REC-SVG-20010904/DTD/svg10.dtd">
<svg version="1.0" xmlns="http://www.w3.org/2000/svg"
 width="300.000000pt" height="300.000000pt" viewBox="0 0 300.000000 300.000000"
 preserveAspectRatio="xMidYMid meet">
<metadata>
Created by potrace 1.10, written by Peter Selinger 2001-2011
</metadata>
<g transform="translate(0.000000,300.000000) scale(0.100000,-0.100000)"
fill="#000000" stroke="none">
<path d="M674 1801 c-36 -16 -54 -51 -54 -107 0 -65 22 -94 76 -103 33 -5 39
-10 39 -31 0 -17 -6 -26 -20 -28 -53 -8 -66 -14 -80 -42 -8 -16 -15 -50 -15
-75 0 -38 5 -52 29 -76 19 -19 40 -29 59 -29 32 0 42 -14 42 -59 0 -47 37 -71
107 -71 71 0 94 18 102 83 4 30 11 43 25 45 23 5 36 -14 36 -54 0 -49 35 -74
104 -74 72 0 106 28 106 88 0 34 3 39 35 51 25 9 40 9 55 1 16 -8 25 -7 41 4
19 13 25 13 55 -1 28 -14 39 -15 72 -4 29 10 44 10 60 2 25 -13 87 -14 111 -2
12 7 31 5 57 -4 33 -11 40 -18 45 -49 10 -59 33 -76 104 -76 51 0 65 4 83 23
12 13 22 36 22 53 1 70 51 76 61 7 8 -65 30 -83 104 -83 51 0 65 4 83 23 12
13 22 35 22 49 0 47 10 58 50 58 53 0 85 39 89 107 1 42 -3 56 -24 82 -22 25
-34 31 -67 31 -35 0 -39 2 -36 23 2 15 11 23 28 25 14 1 35 5 47 7 54 12 72
131 29 182 -22 25 -31 28 -85 28 -73 0 -98 -19 -109 -85 -6 -36 -12 -45 -27
-45 -16 0 -21 8 -23 41 -5 63 -38 89 -113 89 -71 0 -96 -20 -107 -85 -7 -44
-8 -45 -49 -48 -61 -4 -83 -36 -83 -118 l0 -64 -36 0 c-21 0 -47 8 -61 20 -33
26 -89 26 -128 0 -38 -25 -82 -25 -119 -1 -22 15 -42 18 -94 16 -37 -2 -72 1
-79 7 -7 6 -13 28 -13 50 0 52 -35 88 -84 88 -40 0 -56 20 -56 68 0 37 -28 62
-79 69 -78 11 -131 -23 -131 -83 0 -17 -7 -38 -16 -45 -14 -11 -18 -10 -30 6
-8 10 -14 33 -14 50 0 19 -8 39 -20 50 -22 20 -95 29 -126 16z m109 -38 c2 -5
2 -36 -1 -70 l-4 -63 -59 0 -59 0 0 70 0 70 59 0 c33 0 62 -3 64 -7z m269 -65
l-4 -68 71 0 71 0 0 -65 0 -65 -70 0 -70 0 0 65 0 65 -65 0 -65 0 0 -65 0 -65
-71 0 c-61 0 -70 2 -65 16 3 9 6 38 6 65 l0 49 65 0 65 0 0 70 0 70 68 -3 67
-2 -3 -67z m1018 2 l0 -70 65 0 65 0 0 70 0 70 70 0 70 0 0 -70 0 -70 -70 0
-70 0 0 -65 0 -65 -65 0 -65 0 0 -70 0 -70 65 0 65 0 0 -49 c0 -27 3 -56 6
-65 5 -14 -4 -16 -65 -16 l-71 0 0 65 0 65 -65 0 -65 0 0 -65 0 -65 -70 0 -70
0 0 65 0 65 70 0 70 0 0 70 0 70 65 0 65 0 0 65 0 65 -64 0 -64 0 -4 63 c-3
34 -3 65 -1 70 2 4 33 7 69 7 l64 0 0 -70z m-132 -94 c2 -10 1 -38 -3 -62 l-6
-44 -65 0 -64 0 0 65 0 66 67 -3 c57 -3 68 -6 71 -22z m-933 -46 c0 -16 -6
-26 -18 -28 -19 -4 -32 20 -23 44 9 25 41 13 41 -16z m1014 21 c19 -12 6 -41
-19 -41 -13 0 -20 7 -20 18 0 31 14 39 39 23z m-389 -91 c5 0 16 -7 25 -16 12
-12 13 -19 5 -29 -13 -16 -40 -9 -40 10 0 21 -19 28 -35 15 -21 -17 -19 -53 4
-81 22 -28 41 -18 23 11 -11 18 -9 20 23 20 34 0 35 -1 29 -27 -10 -42 -12
-43 -59 -43 -35 0 -48 5 -64 26 -12 15 -21 34 -21 43 0 38 56 86 88 75 8 -2
17 -4 22 -4z m710 -60 l0 -71 -67 3 -68 3 -3 54 c-5 79 -2 81 73 81 l65 0 0
-70z m-1550 -5 l0 -65 -42 0 c-24 0 -53 -3 -65 -6 -22 -6 -23 -4 -23 65 l0 71
65 0 65 0 0 -65z m268 -2 l3 -63 -71 0 -70 0 0 65 0 66 68 -3 67 -3 3 -62z
m197 47 c-3 -11 -2 -27 3 -36 8 -14 12 -11 22 20 15 46 40 45 54 -2 12 -43 29
-41 24 3 -4 31 -1 35 19 35 23 0 30 -10 16 -24 -5 -4 -15 -31 -23 -59 -20 -67
-45 -74 -60 -17 -13 47 -25 45 -34 -5 -11 -56 -39 -47 -60 20 -9 30 -21 57
-26 60 -22 14 -8 25 31 25 36 0 40 -2 34 -20z m-87 -54 c3 -12 -5 -16 -32 -16
-31 0 -36 3 -36 24 0 13 6 26 13 29 16 6 51 -17 55 -37z m323 34 c29 -16 23
-39 -13 -56 l-33 -15 33 4 c34 4 39 -2 20 -21 -15 -15 -53 -16 -79 -2 -27 15
-25 64 3 84 26 19 42 20 69 6z m277 -1 c38 -13 49 -42 28 -74 -33 -51 -127
-19 -112 38 3 13 16 29 28 35 13 6 23 11 24 11 1 1 15 -4 32 -10z m106 5 c23
-9 20 -44 -4 -44 -23 0 -46 36 -27 43 6 3 13 6 14 6 1 1 8 -2 17 -5z m-999
-29 c0 -13 -8 -21 -22 -23 -19 -3 -23 1 -23 23 0 22 4 26 23 23 14 -2 22 -10
22 -23z m1285 5 c0 -13 -7 -20 -19 -20 -22 0 -35 15 -26 30 12 19 45 11 45
-10z m-970 -140 l0 -70 -71 0 c-61 0 -70 2 -65 16 3 9 6 38 6 64 l0 49 53 4
c28 2 58 4 65 5 8 1 12 -18 12 -68z m-270 -5 l0 -65 -71 0 c-61 0 -70 2 -65
16 3 9 6 38 6 65 l0 49 65 0 65 0 0 -65z"/>
<path d="M1447 1444 c-11 -11 -8 -44 3 -44 15 0 24 30 13 41 -5 5 -12 6 -16 3z"/>
<path d="M1730 1411 c0 -16 7 -34 15 -41 13 -11 15 -8 15 13 0 32 -9 57 -21
57 -5 0 -9 -13 -9 -29z"/>
</g>
</svg>
